<?xml version="1.0" encoding="UTF-8"?>
<svg version="1.2" baseProfile="tiny-ps" id="Layer_1" xmlns="http://www.w3.org/2000/svg" xmlns:xlink="http://www.w3.org/1999/xlink" viewBox="0 0 400 484">
    <title>Provectus</title>
    <g>
        <path d="M173.778 463.398L169.605 456.198C169.444 456.037 169.444 455.718 169.283 455.558L169.123 455.237C168.32 454.118 167.678 452.837 166.715 451.397C143.602 417.156 67.998 301.788 80.9997 187.702C90.6307 99.5366 168 65.1345 227.23 79.5354C232.366 80.8155 273.458 88.976 272.014 129.619C271.211 151.219 257.888 175.222 214.71 193.782C194.806 202.263 201.708 200.342 171.691 209.623C156.603 214.264 147.132 215.224 146.008 215.704C144.725 216.183 143.761 217.304 143.761 218.744C143.761 220.504 145.207 221.944 146.972 221.944H151.948C152.108 221.944 152.43 221.944 152.589 221.944C180.68 222.263 258.21 207.863 296.894 185.142C324.663 169.461 349.383 144.179 349.383 107.217C349.383 76.0152 333.332 42.0932 280.2 16.1716C247.936 0.330641 184.372 -11.5101 115.35 18.7318C57.5644 44.1732 21.1272 102.737 11.0147 133.778C-9.69186 197.462 -0.38193 258.266 32.0423 316.19C65.9112 376.513 101.385 416.995 162.702 461.958C164.307 463.078 166.395 464.998 168.32 466.438C169.766 467.399 170.568 467.878 171.21 467.718C171.21 467.718 171.21 467.718 171.371 467.718C172.976 467.718 174.26 466.438 174.26 464.838C174.26 464.359 173.938 463.878 173.618 463.398H173.778Z" fill="#305DFF" />
    </g>
    <g>
        <path d="M373.186 100.691C372.543 99.5722 371.419 98.7734 369.974 98.7734C368.045 98.7734 366.439 100.371 366.439 102.288C366.439 102.448 366.439 102.448 366.439 102.607C370.937 136.155 375.757 282.009 245.804 363.165C237.13 368.596 235.203 361.727 234.399 359.331C227.652 336.806 230.384 291.116 236.648 242.072C236.809 240.315 237.13 237.599 237.13 237.439C236.488 235.842 230.062 240.474 225.564 244.788C212.714 257.568 192.475 290.956 182.355 335.527C169.182 397.193 183.961 462.531 193.759 478.346C197.132 483.778 198.738 484.737 205.325 481.063C236.809 464.288 254.478 448.952 276.806 429.781C325.317 386.488 356.802 341.918 378.006 298.145C406.437 240.634 409.81 163.473 373.186 101.649V100.691Z" fill="#FCD400" />
    </g>
</svg>
